STARTFONT 2.1
COMMENT
COMMENT Converted from OpenType font "Font 90 Icons.ttf" by "otf2bdf 3.0".
COMMENT
FONT -FreeType-Font 90 Icons-Medium-R-Normal--36-260-100-100-P-135-ISO10646-1
SIZE 26 100 100
FONTBOUNDINGBOX 38 37 0 -7
STARTPROPERTIES 19
FOUNDRY "FreeType"
FAMILY_NAME "Font 90 Icons"
WEIGHT_NAME "Medium"
SLANT "R"
SETWIDTH_NAME "Normal"
ADD_STYLE_NAME ""
PIXEL_SIZE 36
POINT_SIZE 260
RESOLUTION_X 100
RESOLUTION_Y 100
SPACING "P"
AVERAGE_WIDTH 135
CHARSET_REGISTRY "ISO10646"
CHARSET_ENCODING "1"
FONT_ASCENT 30
FONT_DESCENT 7
COPYRIGHT "Typeface © (el-harrak.blogspot.com). <darrati10@gmail.com>. All Rights Reserved"
_OTF_FONTFILE "Font 90 Icons.ttf"
_OTF_PSNAME "Font 90 Icons"
ENDPROPERTIES
CHARS 242
STARTCHAR 0000
ENCODING 0
SWIDTH 0 0
DWIDTH 0 0
BBX 0 0 0 0
BITMAP
ENDCHAR
STARTCHAR 001D
ENCODING 29
SWIDTH 0 0
DWIDTH 0 0
BBX 0 0 0 0
BITMAP
ENDCHAR
STARTCHAR 0020
ENCODING 32
SWIDTH 249 0
DWIDTH 9 0
BBX 0 0 0 0
BITMAP
ENDCHAR
STARTCHAR 0021
ENCODING 33
SWIDTH 969 0
DWIDTH 35 0
BBX 35 35 0 -6
BITMAP
0003F80000
001FFF0000
007FFDC000
01FFFE3000
03FFFF1800
07FFFF8C00
0FFFFF8600
1FFF1FC300
1FFE0FC100
3FFE0FC080
3FFF0FC080
7FFF9F8040
7FFFFF8040
7FFFFF8040
FFFFFF0060
FFFFFE0020
FFFFFC0020
FFFFC00020
FFFC000020
FFF0000020
FFE0000060
7FE0000040
7FC0000040
7FC0600040
3FC0F00080
3F81F00080
1FC1F00100
1FC0E00300
0FC0000600
07C0000C00
03E0001800
01F0003000
007800C000
001F0F0000
0003F80000
ENDCHAR
STARTCHAR 0022
ENCODING 34
SWIDTH 969 0
DWIDTH 35 0
BBX 35 27 0 -2
BITMAP
000FFE0000
000C060000
000C020000
0008020000
1FFFFFFF00
7FFFFFFFC0
7FFFFFFFE0
FFFFFFFFE0
FFFFFFFFE0
FFFFFFFFE0
FFFFFFFFE0
FFFFFFFFE0
FFFFFFFFE0
FFFFFFFFE0
FFFFFFFFE0
FFFFFFFFE0
FFFFFFFFE0
FFFFFFFFE0
FFFFFFFFE0
FFFFFFFFE0
FFFFFFFFE0
FFFFFFFFE0
FFFFFFFFE0
FFFFFFFFE0
FFFFFFFFE0
7FFFFFFFE0
7FFFFFFFC0
ENDCHAR
STARTCHAR 0023
ENCODING 35
SWIDTH 969 0
DWIDTH 35 0
BBX 33 37 1 -7
BITMAP
001E000000
00FFE00000
F3FFF80000
F7FFFF0400
77FFFFFC00
7BFFFFFE00
7BFFFFFE00
7BFFFFFE00
7BFFFFFE00
3BFFFFFE00
39FFFFFE00
3DFFFFFF00
3DFFFFFF00
3DFFFFFF00
3DFFFFFF00
1DFFFFFF00
1EFFFFFF00
1EFC0FFF80
1EE001FF80
1EC0007F80
1E00000F80
0E00000000
0F00000000
0F00000000
0F00000000
0F00000000
0700000000
0780000000
0780000000
0780000000
0780000000
0780000000
0380000000
03C0000000
03C0000000
03C0000000
0380000000
ENDCHAR
STARTCHAR 0024
ENCODING 36
SWIDTH 969 0
DWIDTH 35 0
BBX 35 35 0 -6
BITMAP
0700000000
0F80000000
3FC0000000
7FE0000000
7FF0000000
FFF8000000
FFFC000000
FFFE000000
7FFF800000
3FFF400000
1FFEE00000
0FFDF00000
07FBFC0000
03F7F80000
01EFF00000
00DFE00000
00BFC00000
007FE00000
003F700000
001E380000
001C180000
00080C0000
0000060000
0000010000
0000008000
0000004000
0000002000
0000001000
0000000800
0000000400
0000000200
0000000100
0000000080
0000000040
0000000020
ENDCHAR
STARTCHAR 0025
ENCODING 37
SWIDTH 969 0
DWIDTH 35 0
BBX 33 37 1 -7
BITMAP
0001C00000
0003E00000
0003E00000
0003F00000
001FFC0000
007FFF0000
00FFFFC000
01FFFFE000
7BFFEFFF00
FFE1C3FF80
FFC1C1FF80
FF81C0FF80
7FC1C1FF00
3FE183FE00
3FF087FE00
3FF9CFDE00
3C3FFE1E00
3C07F01F00
3C07F01F00
3C07F01F00
3C1FFC1F00
3FFDDFDE00
3FF0C7FE00
3FE1C3FE00
7FC1C1FF00
FF81C0FF80
FFC1C0FF80
FFE1E3FF80
7FFBEFFF00
03FFFFE000
01FFFFC000
007FFF0000
001FFC0000
0003F00000
0003E00000
0003E00000
0001C00000
ENDCHAR
STARTCHAR 0026
ENCODING 38
SWIDTH 969 0
DWIDTH 35 0
BBX 35 35 0 -6
BITMAP
0003F80000
001FFF0000
007E0FC000
01F000F000
03C0003800
0707FC1C00
0E1FFF0E00
1C3FFF8700
187FFFE300
38FFFFE180
31FFFFF180
73CFFFF8C0
63E7FEF8C0
67F3FDFCC0
E7F9FBFCE0
C7FCF7FC60
C7FE6FFC60
C7FF1FFC60
C7FF1FFC60
C7FFBFFC60
E7FFFFFC60
67FFFFFCC0
63FFFFF8C0
73FFFFF8C0
31FFFFF180
38FFFFF180
18FFFFE300
1C3FFF8700
0E1FFF0E00
0707FC1C00
03C0003800
01E000F000
007E0FC000
001FFF0000
0003F80000
ENDCHAR
STARTCHAR 0027
ENCODING 39
SWIDTH 969 0
DWIDTH 35 0
BBX 35 35 0 -6
BITMAP
001F800000
00FFF00000
03FFF80000
07FFFE0000
0FFFFF0000
1FF1FF8000
3FC03F8000
3F061FC000
7E0E0FC000
7E0E07E000
7C0E03E000
FC0E03E000
FCFFF3E000
FDFFF3E000
FCFFF3E000
FC0E03E000
7C0E03E000
7C0E07E000
7E0E07C000
3F060FC000
3F803FC000
1FE0FFE000
0FFFFFF000
07FFFFF800
03FFFFFC00
01FFFFFE00
003FCFFF00
000007FF80
000003FFC0
000001FFC0
000000FFE0
0000007FE0
0000003FC0
0000001FC0
0000000F80
ENDCHAR
STARTCHAR 0028
ENCODING 40
SWIDTH 969 0
DWIDTH 35 0
BBX 35 35 0 -6
BITMAP
003FC00000
01FFF00000
03FFFC0000
07FFFE0000
0FFFFF0000
1FE0FF8000
3F803F8000
3F000FC000
7E000FC000
7C0007E000
7C0003E000
FC0003E000
FCFFF3E000
FDFFF3E000
FCFFF3E000
FC0003E000
7C0003E000
7E0007E000
7E000FC000
3F000FC000
3F803FC000
1FF0FFE000
0FFFFFF000
07FFFFF800
03FFFFFC00
00FFFFFE00
003FCFFF00
000007FF80
000003FFC0
000001FFE0
000000FFE0
0000007FE0
0000003FE0
0000001FC0
0000000780
ENDCHAR
STARTCHAR 0029
ENCODING 41
SWIDTH 969 0
DWIDTH 35 0
BBX 35 26 0 -2
BITMAP
7FFFFFFFE0
FFFFFFFFE0
F8000003E0
FC000007E0
DE00000F60
CF00001E60
C780003C60
C3C0007860
C1E000F060
C0F001E060
C07803C060
C03C078060
C01E0F0060
C01F1F8060
C03FBFC060
C073F9E060
C0E1F0F060
C1C0007860
C380003C60
C700001E60
CE00000F60
DC000007E0
F8000003E0
FFFFFFFFE0
7FFFFFFFE0
3FFFFFFFC0
ENDCHAR
STARTCHAR 002A
ENCODING 42
SWIDTH 969 0
DWIDTH 35 0
BBX 31 37 2 -7
BITMAP
00038000
0007C000
0007C000
0007C000
0007C000
0007C000
0007C000
0007C000
0007C000
0107C100
03C7CF80
03F7FF80
01FFFF00
00FFFE00
007FFC00
3FBFFBF8
3FDFF7F8
DFEFEFF6
EFF7DFEE
F7FBBFDE
FBFC7FBE
FDFFFF7E
FEFFFEFE
FF7FFDFE
FFBFFBFE
FFDFF7FE
FFEFE7FE
FFB7DBFE
FF793DFE
FEFEFEFE
FDFFFF7E
FBFFFFBE
FFFFFFDE
FFFFFFEE
FFFFFFF6
7FFFFFFC
3FFFFFF8
ENDCHAR
STARTCHAR 002B
ENCODING 43
SWIDTH 969 0
DWIDTH 35 0
BBX 35 35 0 -6
BITMAP
FFFFFFFFE0
FFFFFFFFE0
FFFFFFFFE0
FFFFFFFFE0
FFFFFFFFE0
F00FFE01E0
F01FFF01E0
F03FFF81E0
F01FFF01E0
F00FFE01E0
F207FC09E0
F30FFE19E0
FF9FFF3DE0
FFFFFFFFE0
FFFFFFFFE0
FFFFFFFFE0
FFFFFFFFE0
FFFFFFFFE0
FFFFFFFFE0
FFFFFFFFE0
FFFFFFFFE0
FFFFFFFFE0
FF9FFF3DE0
F30FFE19E0
F207FC09E0
F00FFE01E0
F01FFF01E0
F03FFF81E0
F01FFF01E0
F00FFE01E0
FFFFFFFFE0
FFFFFFFFE0
FFFFFFFFE0
FFFFFFFFE0
FFFFFFFFE0
ENDCHAR
STARTCHAR 002C
ENCODING 44
SWIDTH 969 0
DWIDTH 35 0
BBX 35 35 0 -6
BITMAP
0000000800
000003FC00
00001FFE00
00003FFF00
00007FFF80
0000FFFFC0
0001FFE7E0
0003FFC3E0
0007FFE7C0
000FFFFFC0
001FFFFFC0
003FFFFFC0
007FFFFFC0
00FFFFFFC0
01FFFFFF80
03CFFFFF80
07C7FFFF00
0FE3FFFE00
1E71FFFC00
3F38FFF800
7F9C7FF000
FFCE3FE000
7FE71FC000
3FF38F8000
1FF9CF0000
0FFCFE0000
07FE7C0000
03FF780000
01FFF00000
00FFE00000
007FC00000
003F800000
001F000000
000E000000
0004000000
ENDCHAR
STARTCHAR 002D
ENCODING 45
SWIDTH 969 0
DWIDTH 35 0
BBX 35 35 0 -6
BITMAP
0003F80000
001FFF0000
007F3FC000
01F001F000
03C0007800
0700001C00
0F00000E00
1F80010700
1DC0030300
38E0070380
30700F0180
70381F01C0
60043F00C0
601FFF00C0
601FFF00E0
E01FFF00E0
E01FFF0060
C01FFF0060
E01FFF0060
E01FFF0060
601FFF00E0
601FFF00C0
60003F00C0
70001F01C0
30000F4180
3800076380
1800037300
1C00033F00
0E00001E00
0700001C00
03C0007800
01F001F000
007F1FC000
001FFF0000
0003F80000
ENDCHAR
STARTCHAR 002E
ENCODING 46
SWIDTH 969 0
DWIDTH 35 0
BBX 30 37 3 -7
BITMAP
3FFFFFF0
3FFFFFF0
30000010
30000010
30000010
30000010
30000010
30000010
30000010
30000010
30000010
30000010
30000010
30000010
30000010
30000010
30000010
30000030
3FFFFFF0
00000000
00000000
3FFFFFF0
3FFFFFF0
3FFFE070
3FFFE070
3FFFFFF0
3FFFFFF0
3FFFFFF0
00030000
00030000
00030000
00030000
00030000
007FF800
FFFFFFFC
FFFFFFFC
007FF800
ENDCHAR
STARTCHAR 002F
ENCODING 47
SWIDTH 969 0
DWIDTH 35 0
BBX 35 35 0 -6
BITMAP
0C03F80200
0C07FC0600
0E0FFE0600
060FFE0E00
061FFF0C00
E71FFF1C60
671FFF1CE0
631FFF18C0
739FFF38C0
739FFF39C0
739FFF39C0
739FFF39C0
339FFF39C0
339FFF39C0
339FFF39C0
339FFF39C0
339FFF39C0
739FFF39C0
739FFF39C0
739FFF39C0
639FFF18C0
631FFF18C0
E71FFF1CE0
C70FFE1C60
460FFE0C40
0E07FC0E00
0C03F80600
0C03F80600
0803F80200
0003F80000
0003F80000
0003F80000
0003F80000
0003F80000
0001F00000
ENDCHAR
STARTCHAR 0030
ENCODING 48
SWIDTH 969 0
DWIDTH 35 0
BBX 35 35 0 -6
BITMAP
0001F00000
001FFF0000
007FFFC000
01FFFFF000
03FFFFF800
07FFFFFC00
0FDFFF7E00
1F8FFE3F00
1F0FFE1F00
3E07FC0F80
3C07FC0780
7C03F807C0
7801F003C0
7801F003C0
7803F803E0
F0071C01E0
F0060C01E0
FFFE0FFFE0
FFFE0FFFE0
FFFF1FFFE0
FFFFFFFFE0
7FFFFFFFC0
7FFE0FFFC0
7FFC07FFC0
3FFC07FFC0
3FF803FF80
1FF001FF00
1FF001FF00
0FE000FE00
07F001FC00
03FE0FF800
01FFFFF000
007FFFC000
001FFF8000
0003FC0000
ENDCHAR
STARTCHAR 0031
ENCODING 49
SWIDTH 969 0
DWIDTH 35 0
BBX 33 37 1 -7
BITMAP
0007F00000
0007F00000
0007F00000
0007F00000
0027F20000
00E7F18000
01E7F1C000
07E7F1F000
0FE7F1F800
1FE7F1FC00
1FC7F1FC00
3F87F07E00
3F07F03F00
7E07F03F00
7C07F01F00
FC07F01F80
F807F00F80
F807F00F80
F807F00F80
F807F00F80
F807F00F80
F800000F80
F800000F80
F800000F80
FC00000F80
7C00001F80
7E00001F00
7E00003F00
3F00007E00
3F8000FE00
1FE003FC00
0FF80FF800
07FFFFF000
03FFFFE000
00FFFF8000
007FFF0000
000FF80000
ENDCHAR
STARTCHAR 0032
ENCODING 50
SWIDTH 969 0
DWIDTH 35 0
BBX 33 37 1 -7
BITMAP
0001C00000
0003E00000
0003E00000
0007F00000
0003E00000
0003E00000
0003E00000
0003E00000
7803E00F00
FE03C03F80
FF01C07F80
FF81C0FF80
7FC1C1FF00
3FE183FE00
0FF187F800
03F9CFC000
003FFE0000
0007F00000
0007F00000
0007F00000
001FFC0000
01FDDFC000
0FF1C7F800
3FE1C3FE00
7FC1C1FF00
FF81C0FF80
FF01C07F80
FE03E03F80
7803E00F00
0003E00000
0003E00000
0003E00000
0003F00000
0003F00000
0003E00000
0003E00000
0001C00000
ENDCHAR
STARTCHAR 0033
ENCODING 51
SWIDTH 969 0
DWIDTH 35 0
BBX 35 33 0 -5
BITMAP
0000400000
0000400000
0000E00000
0000E00000
0001F00000
0001F00000
0003F80000
0003F80000
0007FC0000
0007FC0000
000FFE0000
00FFFFE000
FFFFFFFFE0
7FFFFFFFC0
3FFFFFFF80
1FFFFFFF00
0FFFFFFE00
07FFFFFC00
03FFFFF800
01FFFFF000
00FFFFE000
007FFFC000
007FFFC000
00FFFFE000
00FFFFE000
00FFFFE000
00FFFFE000
00FFBFE000
00FE0FE000
01F803F000
01F000F000
01C0007000
0100001000
ENDCHAR
STARTCHAR 0034
ENCODING 52
SWIDTH 969 0
DWIDTH 35 0
BBX 35 25 0 -1
BITMAP
3FFFFFFF80
3FFFFFFF80
5FFFFFFF60
EFFFFFFEE0
F7FFFFFDE0
FBFFFFFBE0
FDFFFFF7E0
FEFFFFEFE0
FF7FFFDFE0
FFBFFFBFE0
FFDFFF7FE0
FFEFFEFFE0
FFF7FDFFE0
FFE3F8FFE0
FFDDF77FE0
FFBE4FBFE0
FF7FBFDFE0
FEFFFFEFE0
FDFFFFF7E0
FBFFFFFBE0
F7FFFFFDE0
EFFFFFFEE0
DFFFFFFF60
3FFFFFFF80
3FFFFFFF80
ENDCHAR
STARTCHAR 0035
ENCODING 53
SWIDTH 969 0
DWIDTH 35 0
BBX 35 27 0 -3
BITMAP
0000E1E000
0001B1F000
000719F000
000E4FF000
0019F3F000
0073F9F000
00CFFC7000
039FFF3800
063FFF8C00
1CFFFFE700
31FFFFF180
E7FFFFF8E0
87FFFFF840
07FFFFF800
07FFFFF800
07FE07F800
07FE07F800
07FE07F800
07FE07F800
07FE07F800
07FE07F800
07FE07F800
07FE07F800
07FE07F800
07FE07F800
07FE07F800
03FE07F800
ENDCHAR
STARTCHAR 0036
ENCODING 54
SWIDTH 969 0
DWIDTH 35 0
BBX 35 37 0 -7
BITMAP
0100002000
07C000F800
07C001F800
0FC001F800
07C000F800
07C000F000
0000000000
1FF003FC00
7FFC07FF00
7FFC07FF00
FFFC0FFF00
FFFE0FFB80
EFEE0DFF80
EFEE1DFD80
EFEE1FFDC0
EFEE1BFFC0
EFEE3BFEC0
EFEE3FFEC0
EFEE3FFEE0
EFEE37FFE0
EFEC07FF00
4FE40FFF00
0EE00FFF80
0EE00FFF80
0EE01FFF80
0EE001DC00
0EE001DC00
0EE001DC00
0EE001DC00
0EE001DC00
0EE001DC00
0EE001DC00
0EE001DC00
0EE001DC00
0EE001DC00
0EE001DC00
0C4000D800
ENDCHAR
STARTCHAR 0037
ENCODING 55
SWIDTH 969 0
DWIDTH 35 0
BBX 35 27 0 -2
BITMAP
001F000000
00FFE00000
03F1F80000
07E0FC0000
0FC07E0000
1FC07F0000
3FC07F8000
3FC07F8000
7FE0FFC000
7FF1FFC000
707FC1C000
E03F80E000
E03F806000
C03F806000
E03F80E000
E07FC0E000
70FFE1C000
7FE0FFC000
7FC07FC000
3FC07F8000
3FC07F8000
1FC07F0000
0FC07F80E0
07E0FD83E0
03FFF9FFC0
00FFE0FE00
001F800000
ENDCHAR
STARTCHAR 0038
ENCODING 56
SWIDTH 969 0
DWIDTH 35 0
BBX 27 37 4 -7
BITMAP
7FFFFFC0
FFFFFFE0
FFFFFFE0
E00000E0
E0000060
E0000060
E0000060
E0000060
E0000060
E00000E0
FFFFFFE0
FFFFFFE0
FFFFFFE0
E0E0E0E0
E0E0E0E0
E0E0E0E0
E0E0E0E0
E0F0F0E0
FFFFFFE0
FFFFFFE0
FFFFFFE0
E0E0E0E0
E0E0E0E0
E0E0E0E0
E0E0E0E0
F1F0F0E0
FFFFFFE0
FFFFFFE0
FFFFFFE0
E0E0E0E0
E0E0E0E0
E0E0E0E0
E0E0E0E0
FFFFFFE0
FFFFFFE0
FFFFFFE0
7FFFFFC0
ENDCHAR
STARTCHAR 0039
ENCODING 57
SWIDTH 969 0
DWIDTH 35 0
BBX 35 33 0 -5
BITMAP
E000000000
F000000000
7800000000
3C00000000
1C00000000
0E3FFFFFE0
073FFFFFC0
071FFFFFC0
031FFFFF80
039FFFFF80
039FFFFF00
019FFFFF00
019FFFFE00
01CFFFFE00
01CFFFFC00
01CFFFFC00
00CFFFF800
00C0000000
00C0000000
00E0000000
00E0000000
00FFFFFE00
00FFFFFF00
007FFFFF00
0000000000
0000000000
0078001C00
00FC003E00
01FC007F00
01FC007F00
01FC007F00
00FC007F00
0078003E00
ENDCHAR
STARTCHAR 003A
ENCODING 58
SWIDTH 969 0
DWIDTH 35 0
BBX 35 35 0 -6
BITMAP
000001E000
00000FF800
00001FFE00
00007FFF00
00007FFF80
0000FFC3C0
0001FF83C0
0001FF81C0
0001FF83E0
0001FFC7E0
0001FFFFE0
0001FFFFE0
0001FFFFE0
0001FFFFC0
0004FFFFC0
0004FFFF80
000E7FFF80
001F3FFF00
003F1FFE00
007FC7F800
00FFE00000
01FFF80000
03FF800000
07FF800000
0FFF800000
1FFE000000
3FFE000000
7FC0000000
FFC0000000
FFC0000000
FFC0000000
FF00000000
7F00000000
3F00000000
1E00000000
ENDCHAR
STARTCHAR 003B
ENCODING 59
SWIDTH 969 0
DWIDTH 35 0
BBX 35 35 0 -6
BITMAP
0000E00000
0000E00000
0000E00000
0000E00000
0000E00000
0000E00000
0000E00000
0000E00000
0000E00000
0000E00000
0000E00000
0000E00000
0000E00000
0000E00000
0000E00000
0000E00000
FFFFFFFFE0
FFFFFFFFE0
FFFFFFFFE0
0000E00000
0000E00000
0000E00000
0000E00000
0000E00000
0000E00000
0000E00000
0000E00000
0000E00000
0000E00000
0000E00000
0000E00000
0000E00000
0000E00000
0000E00000
0000E00000
ENDCHAR
STARTCHAR 003C
ENCODING 60
SWIDTH 969 0
DWIDTH 35 0
BBX 35 29 0 -3
BITMAP
0000400000
0000E00000
0000E00000
0001F00000
0001F80000
0003F80000
0007BC0000
00071C0000
000F1E0000
000E0F0000
001E0F0000
003C078000
0038038000
007803C000
007001E000
00F001E000
01E000F000
01E0007000
03C0007800
0380003C00
0780003C00
0F00001E00
0F00000E00
1E00000F00
1C00000700
3C00000780
78000003C0
78000001C0
F0000001E0
ENDCHAR
STARTCHAR 003D
ENCODING 61
SWIDTH 969 0
DWIDTH 35 0
BBX 35 35 0 -6
BITMAP
0001F00000
001FFF0000
007803C000
01C0007000
0300001800
0600000C00
0C00000600
18FFF80300
183C3E0100
303C1F0180
203C0F0080
603C0780C0
603C0780C0
403C070040
C03C0F0060
C03C1E0060
C03C3C0060
C03FF00060
C03CF00060
C03C700060
C03C780060
403C3C0040
603C1E00C0
603C1E00C0
203C0F0080
303C078180
183C03C100
18FF83E300
0C00000600
0600000C00
0380001800
01C0007000
007801C000
001FFF0000
0003F80000
ENDCHAR
STARTCHAR 003E
ENCODING 62
SWIDTH 969 0
DWIDTH 35 0
BBX 35 35 0 -6
BITMAP
0001F00000
001FFF0000
007803C000
01C0007000
0380003800
0600000C00
0C00704600
1807FFC300
181C03C300
303801C180
207000C080
60F00040C0
60E00060C0
41E0000040
C1E0000060
C1C0000060
C3C0000060
C3C0000060
C3C0000060
C3E0000060
C1E0000060
41E0000040
61E0000040
60F00020C0
2078004080
303C008180
181E030100
1807FC0300
0C00400600
0600000C00
0300001800
01C0007000
007801C000
001FFF0000
0003F80000
ENDCHAR
STARTCHAR 003F
ENCODING 63
SWIDTH 969 0
DWIDTH 35 0
BBX 35 35 0 -6
BITMAP
0000E00000
001FFF0000
007FFFC000
00FFFFF000
03FE07F800
07F001FC00
0FC0007E00
0F80003F00
1F00001F00
3E00000F80
3C00000780
7C000003C0
78000003C0
78000003C0
70000001E0
F0000001E0
F0000001E0
F0000001E0
F0000001E0
F0000001E0
70000001E0
78000003C0
78000003C0
78000003C0
3C00000780
3E00000F80
1F00000F00
1F00001F00
0FC0007E00
07E000FC00
03FC07F800
01FFFFF000
007FFFC000
001FFF0000
0003F80000
ENDCHAR
STARTCHAR 0040
ENCODING 64
SWIDTH 969 0
DWIDTH 35 0
BBX 35 35 0 -6
BITMAP
0000400000
0000400000
0000E00000
0000E00000
0001F00000
0001F00000
0003F80000
0003F80000
0007FC0000
0007FC0000
000FFE0000
000FFE0000
001FFF0000
001FFF0000
003FFF8000
003FFF8000
007FFFC000
007FFFC000
00FFFFE000
00FFFFE000
01FFFFF000
01FFFFF000
03FFFFF800
03FFFFF800
07FFFFFC00
07FFFFFC00
0FFFFFFE00
0FFFFFFE00
1FFFFFFF00
1FFFFFFF00
3FFFFFFF80
3FFFFFFF80
7FFFFFFFC0
7FFFFFFFC0
FFFFFFFFE0
ENDCHAR
STARTCHAR 0041
ENCODING 65
SWIDTH 969 0
DWIDTH 35 0
BBX 35 33 0 -5
BITMAP
8004000000
C006000000
F007000000
F807C00000
FC07E00000
FF07F00000
FF87FC0000
FFC7FE0000
FFF7FF0000
FFF9FF8000
FFFCFFE000
FFFF7FF000
FFFF9FF800
FFFFCFFE00
FFFFF7FF00
FFFFF9FF80
FFFFFCFFE0
FFFFF9FF80
FFFFF7FF00
FFFFCFFE00
FFFF9FFC00
FFFF7FF000
FFFCFFE000
FFF9FFC000
FFF3FF0000
FFC7FE0000
FF87FC0000
FF07F00000
FC07E00000
F807C00000
F007000000
E006000000
8004000000
ENDCHAR
STARTCHAR 0042
ENCODING 66
SWIDTH 969 0
DWIDTH 35 0
BBX 30 37 3 -7
BITMAP
800003FC
C00003FC
E00003FC
F80003FC
FE0003FC
FF0003FC
FFC003FC
FFF003FC
FFF803FC
FFFE03FC
FFFF03FC
FFFFC3FC
FFFFF3FC
FFFFFBFC
FFFFFFFC
FFFFFFFC
FFFFFFFC
FFFFFFFC
FFFFFFFC
FFFFFFFC
FFFFFFFC
FFFFFFFC
FFFFFFFC
FFFFFFFC
FFFFF3FC
FFFFC3FC
FFFF83FC
FFFE03FC
FFF803FC
FFF003FC
FFC003FC
FF8003FC
FE0003FC
F80003FC
F00003FC
C00003FC
800003FC
ENDCHAR
STARTCHAR 0043
ENCODING 67
SWIDTH 969 0
DWIDTH 35 0
BBX 27 37 4 -7
BITMAP
FFE0FFE0
FFE0FFE0
FFE0FFE0
FFE0FFE0
FFE0FFE0
FFE0FFE0
FFE0FFE0
FFE0FFE0
FFE0FFE0
FFE0FFE0
FFE0FFE0
FFE0FFE0
FFE0FFE0
FFE0FFE0
FFE0FFE0
FFE0FFE0
FFE0FFE0
FFE0FFE0
FFE0FFE0
FFE0FFE0
FFE0FFE0
FFE0FFE0
FFE0FFE0
FFE0FFE0
FFE0FFE0
FFE0FFE0
FFE0FFE0
FFE0FFE0
FFE0FFE0
FFE0FFE0
FFE0FFE0
FFE0FFE0
FFE0FFE0
FFE0FFE0
FFE0FFE0
FFE0FFE0
FFE0FFE0
ENDCHAR
STARTCHAR 0044
ENCODING 68
SWIDTH 969 0
DWIDTH 35 0
BBX 30 37 3 -7
BITMAP
80000000
C0000000
E0000000
F8000000
FE000000
FF000000
FFC00000
FFE00000
FFF80000
FFFE0000
FFFF0000
FFFFC000
FFFFF000
FFFFF800
FFFFFE00
FFFFFF80
FFFFFFC0
FFFFFFF0
FFFFFFFC
FFFFFFF0
FFFFFFE0
FFFFFF80
FFFFFE00
FFFFFC00
FFFFF000
FFFFC000
FFFF8000
FFFE0000
FFF80000
FFF00000
FFC00000
FF800000
FE000000
F8000000
F0000000
C0000000
80000000
ENDCHAR
STARTCHAR 0045
ENCODING 69
SWIDTH 969 0
DWIDTH 35 0
BBX 35 35 0 -6
BITMAP
0001F00000
001FFF0000
007FFFC000
00FFFFF000
03FFFFF800
07FFFFFC00
0FFFFFFE00
0FFFFFFF00
1FFFFFFF00
3FFFFFFF80
3FFE0FFF80
7FF803FFC0
7FF001FFC0
7FE000FFC0
7FE0007FE0
FFC0007FE0
FFC0007FE0
FFC0007FE0
FFC0007FE0
FFC0007FE0
7FE0007FE0
7FE000FFC0
7FF001FFC0
7FF803FFC0
3FFC07FF80
3FFFFFFF80
1FFFFFFF00
1FFFFFFF00
0FFFFFFE00
07FFFFFC00
03FFFFF800
01FFFFF000
007FFFC000
001FFF0000
0003F80000
ENDCHAR
STARTCHAR 0046
ENCODING 70
SWIDTH 969 0
DWIDTH 35 0
BBX 34 34 1 -6
BITMAP
FFFFFFFFC0
FFFFFFFFC0
FFFFFFFFC0
FFFFFFFFC0
FFFFFFFFC0
FFFFFFFFC0
FFFFFFFFC0
FFFFFFFFC0
FFFFFFFFC0
FFFFFFFFC0
FFFFFFFFC0
FFFFFFFFC0
FFFFFFFFC0
FFFFFFFFC0
FFFFFFFFC0
FFFFFFFFC0
FFFFFFFFC0
FFFFFFFFC0
FFFFFFFFC0
FFFFFFFFC0
FFFFFFFFC0
FFFFFFFFC0
FFFFFFFFC0
FFFFFFFFC0
FFFFFFFFC0
FFFFFFFFC0
FFFFFFFFC0
FFFFFFFFC0
FFFFFFFFC0
FFFFFFFFC0
FFFFFFFFC0
FFFFFFFFC0
FFFFFFFFC0
FFFFFFFFC0
ENDCHAR
STARTCHAR 0047
ENCODING 71
SWIDTH 969 0
DWIDTH 35 0
BBX 31 37 2 -7
BITMAP
7F000002
7F00000E
7F00001E
7F00007E
7F0000FE
7F0003FE
7F000FFE
7F001FFE
7F007FFE
7F01FFFE
7F03FFFE
7F0FFFFE
7F3FFFFE
7F7FFFFE
7FFFFFFE
7FFFFFFE
7FFFFFFE
7FFFFFFE
FFFFFFFE
7FFFFFFE
7FFFFFFE
7FFFFFFE
7FFFFFFE
7FFFFFFE
7F3FFFFE
7F0FFFFE
7F07FFFE
7F01FFFE
7F007FFE
7F003FFE
7F000FFE
7F0003FE
7F0001FE
7F00007E
7F00001E
7F00000E
7F000002
ENDCHAR
STARTCHAR 0048
ENCODING 72
SWIDTH 969 0
DWIDTH 35 0
BBX 35 33 0 -5
BITMAP
0000020020
00000C0060
00001C01E0
00003C03E0
0000FC07E0
0001FC1FE0
0003FC3FE0
000FFC7FE0
001FFDFFE0
003FF3FFE0
00FFE7FFE0
01FFDFFFE0
03FF3FFFE0
0FFE7FFFE0
1FFDFFFFE0
3FF3FFFFE0
FFE7FFFFE0
3FF3FFFFE0
1FFDFFFFE0
0FFE7FFFE0
03FF3FFFE0
01FFDFFFE0
00FFE7FFE0
003FF3FFE0
001FFDFFE0
000FFC7FE0
0003FC3FE0
0001FC1FE0
0000FC07E0
00003C03E0
00001C01E0
00000C0060
0000040020
ENDCHAR
STARTCHAR 0049
ENCODING 73
SWIDTH 969 0
DWIDTH 35 0
BBX 35 35 0 -6
BITMAP
F200000000
F180000000
F1C0000000
F1E0000000
F1E0000000
F1E2000000
F1E3800000
F1E3C00000
F1E3F00000
F1E3FC0000
F1E3FE0000
F1E3FF8000
F1E3FFE000
F1E3FFF000
F1E3FFFC00
F1E3FFFE00
F1E3FFFF80
F1E3FFFFE0
F1E3FFFF80
F1E3FFFF00
F1E3FFFC00
F1E3FFF000
F1E3FFE000
F1E3FF8000
F1E3FE0000
F1E3FC0000
F1E3F00000
F1E3E00000
F1E3800000
F1E2000000
F1E0000000
F1E0000000
F1C0000000
F180000000
F200000000
ENDCHAR
STARTCHAR 004A
ENCODING 74
SWIDTH 969 0
DWIDTH 35 0
BBX 35 34 0 -6
BITMAP
0000400000
0000E00000
0001F00000
0001F80000
0003F80000
0007FC0000
000FFE0000
000FFF0000
001FFF0000
003FFF8000
007FFFC000
007FFFE000
00FFFFE000
01FFFFF000
03FFFFF800
03FFFFFC00
07FFFFFC00
0FFFFFFE00
1FFFFFFF00
1FFFFFFF80
3FFFFFFF80
7FFFFFFFC0
8000000020
0000000000
0000000000
FFFFFFFFE0
FFFFFFFFE0
FFFFFFFFE0
FFFFFFFFE0
FFFFFFFFE0
FFFFFFFFE0
FFFFFFFFE0
FFFFFFFFE0
FFFFFFFFE0
ENDCHAR
STARTCHAR 004B
ENCODING 75
SWIDTH 969 0
DWIDTH 35 0
BBX 35 35 0 -6
BITMAP
0000000E00
0000001E00
0000003E00
0000003E00
0000007C00
0000007C00
000000F800
000000F800
000001F000
000003F000
000003E000
1FFFFFE000
3FFFFFC000
7FFFFFC000
FFFFFFE000
1FFFFFE000
00FFFFF000
0007FFF800
00007FF800
0000FFFC00
0000FFFC00
0001F3FE00
0001F1FE00
0003E0FF00
0003C07F00
0007C03F80
00FF801FC0
00FF000FC0
01FF800FE0
02FF8007C0
000F8003C0
0007C00180
0003C00080
0001800000
0000800000
ENDCHAR
STARTCHAR 004C
ENCODING 76
SWIDTH 969 0
DWIDTH 35 0
BBX 29 37 3 -7
BITMAP
00000100
00000100
00000300
00000380
007FC780
03FFFFC0
07FFFFC0
0FFFFFC0
1FFFFFE0
3C01FFE0
70007FF0
80007FF0
0000FFF0
0000FFF8
0001FFF8
0003FF00
00030000
00000000
00000000
00000000
00030000
01FE0000
FFFC0000
FFFC0000
7FF80000
7FF00008
7FF00030
3FFC01E0
3FFFFFC0
1FFFFFC0
1FFFFF00
0FFFFE00
0F3FF800
0E000000
06000000
04000000
04000000
ENDCHAR
STARTCHAR 004D
ENCODING 77
SWIDTH 969 0
DWIDTH 35 0
BBX 35 29 0 -3
BITMAP
003FF00000
00FFFC0000
03FFFF0000
07FFFF8000
0FF87FC000
1FC00FE000
1F0007E000
3E0001F000
3E0001F000
7C0000F800
780000F800
7800007820
F8000FFFC0
F80007FF80
F80003FF00
F80001FF00
F80000FE00
7800007C00
7800007800
7C00003000
3E00001000
3E00000000
1F00000000
1FC00C0000
0FF03C0000
07FFFE0000
03FFFE0000
00FFFC0000
003FF00000
ENDCHAR
STARTCHAR 004E
ENCODING 78
SWIDTH 969 0
DWIDTH 35 0
BBX 35 25 0 -1
BITMAP
0000000700
0000000F80
0000001FC0
0000003FE0
0000007FE0
000000FFC0
000001FF80
180003FF00
3E0007FE00
7F000FFC00
FF801FF800
FFC03FF000
7FE07FE000
3FF0FFC000
1FF9FF8000
0FFFFF0000
07FFFE0000
03FFFC0000
01FFF80000
00FFF00000
007FE00000
003FC00000
001F800000
000F000000
0006000000
ENDCHAR
STARTCHAR 004F
ENCODING 79
SWIDTH 969 0
DWIDTH 35 0
BBX 35 35 0 -6
BITMAP
1C00000000
7FF0000000
FFFE000000
FFFF800000
FFFFE00000
7FFFF80000
3FFFFC0000
007FFE0000
0007FF8000
0001FFC000
10007FE000
7FC03FF000
7FF81FF000
FFFE07F800
FFFF03FC00
7FFF83FC00
3FFFC1FE00
00FFE0FE00
003FF07F00
000FF87F00
0007FC3F80
0003FC3F80
0001FE1F80
0700FE1FC0
3FC0FE1FC0
3FE07F0FC0
7FE07F0FC0
FFF03F0FE0
FFF03F0FE0
FFF03F8FE0
FFF03F8FE0
7FE03F8FE0
3FE03F8FE0
3FC01F07C0
07000E0380
ENDCHAR
STARTCHAR 0050
ENCODING 80
SWIDTH 969 0
DWIDTH 35 0
BBX 33 37 1 -7
BITMAP
0003E00000
001FFC0000
007FFF0000
00FFFF8000
01FFFFC000
03FFFFE000
07F80FF000
07E003F000
0FC001F800
0FC001F800
0F8000F800
1F8000FC00
1F8000FC00
1F8000FC00
1F8000FC00
1F8000FC00
1F8000FC00
FFFFFFFF80
FFFFFFFF80
FFFFFFFF80
FFFFFFFF80
FFFE3FFF80
FFFC1FFF80
FFFC1FFF80
FFFC1FFF80
FFFE3FFF80
FFFE3FFF80
FFFE3FFF80
FFFE3FFF80
FFFE3FFF80
FFFE3FFF80
FFFE3FFF80
FFFFFFFF80
FFFFFFFF80
FFFFFFFF80
FFFFFFFF80
FFFFFFFF80
ENDCHAR
STARTCHAR 0051
ENCODING 81
SWIDTH 969 0
DWIDTH 35 0
BBX 35 35 0 -6
BITMAP
01FFFFF000
01FFFFF000
01FFFFF000
01FFFFF000
01FFFFF000
01FFFFF000
01FFFFF000
01FFFFF000
01FFFFF000
01FFFFF000
01FFFFF000
01FFFFF000
01FFFFF000
0000600000
0000600000
0000600000
0000600000
0000600000
01FFFFF800
01FFFFF800
0100001800
0100001800
0100001800
FFFE0FFFE0
FFFE0FFFE0
FFFE0FFFE0
FFFE0FFFE0
FFFE0FFFE0
FFFE0FFFE0
FFFE0FFFE0
FFFE0FFFE0
FFFE0FFFE0
FFFE0FFFE0
FFFE0FFFE0
FFFE0FFFE0
ENDCHAR
STARTCHAR 0052
ENCODING 82
SWIDTH 969 0
DWIDTH 35 0
BBX 35 21 0 1
BITMAP
0006000000
0007000000
0003C00000
0003E00000
03FFF1F800
0FFFF9FE00
1FFFFDFF00
3FFFF1FF80
7E03E00FC0
7C03C007C0
78070003E0
F8060003E0
F8000001E0
F8000003E0
78000003E0
7C000007C0
7F80001FC0
3FFFFFFF80
1FFFFFFF00
0FFFFFFE00
03FFFFF800
ENDCHAR
STARTCHAR 0053
ENCODING 83
SWIDTH 969 0
DWIDTH 35 0
BBX 35 29 0 -3
BITMAP
0000018000
000007C000
00000FE000
00001FF000
00003FF800
7FFC7FFC00
FFFEFFFE00
FFFDFFFF00
FFFBFFFF80
FFFBFFFFC0
FFF7F7FFE0
FE07C7E7E0
F80307E0C0
FBFCF7FF20
FBFFF7FFE0
F3FFF7FFC0
F3FFF7FFC0
F7FFF7FFC0
F7FFF7FFC0
E7FFF7FF80
EFFFF7FF80
EFFFF7FF80
CFFFFFDF00
CFFFF81F00
DFFFFFFF00
DFFFFFFF00
5FFFFFFE00
3FFFFFFE00
1FFFFFFC00
ENDCHAR
STARTCHAR 0054
ENCODING 84
SWIDTH 969 0
DWIDTH 35 0
BBX 35 35 0 -6
BITMAP
0001F00000
001FFF0000
007FFFC000
01FFFFF000
03FFFFF800
07FF9FFC00
0FF803FE00
1FE000FF00
1FE0003F00
3FF0001F80
3FF8001F80
7E7C000FC0
7C3E0007C0
7C1F0007C0
7C0F8007C0
FC07C007E0
F803E003E0
F801F003E0
F800F803E0
FC007C07E0
FC003E07C0
7C001F07C0
7C000F87C0
7E0007CFC0
3F0003FF80
3F0001FF80
1F8000FF00
1FE000FF00
0FF001FE00
07FF1FFC00
03FFFFF800
01FFFFF000
007FFFC000
001FFF0000
0003F80000
ENDCHAR
STARTCHAR 0055
ENCODING 85
SWIDTH 969 0
DWIDTH 35 0
BBX 35 31 0 -4
BITMAP
0000600000
0000E00000
0001E00000
0001E00000
0003E00000
0007E00000
000FE00000
001FE00000
003FE00000
FFFFE00000
FFFFE00000
FFFFE00000
FFFFE00000
FFFFE00000
FFFFE3FFE0
FFFFE3FFE0
FFFFE3FFE0
FFFFE00000
FFFFE00000
FFFFE00000
FFFFE00000
7FFFE00000
003FE00000
001FE00000
000FE00000
0007E00000
0003E00000
0001E00000
0000E00000
0000E00000
0000600000
ENDCHAR
STARTCHAR 0056
ENCODING 86
SWIDTH 969 0
DWIDTH 35 0
BBX 35 31 0 -4
BITMAP
0000300000
0000700000
0000F00000
0001F00000
0003F00000
0007F00000
000FF00000
001FF00000
003FF00000
FFFFF03C00
FFFFF03C00
FFFFF03C00
FFFFF03C00
FFFFF03C00
FFFFF3FFE0
FFFFF3FFE0
FFFFF3FFE0
FFFFF3FFE0
FFFFF03C00
FFFFF03C00
FFFFF03C00
7FFFF03C00
003FF00000
001FF00000
000FF00000
0007F00000
0003F00000
0001F00000
0000F00000
0000700000
0000700000
ENDCHAR
STARTCHAR 0057
ENCODING 87
SWIDTH 969 0
DWIDTH 35 0
BBX 35 33 0 -5
BITMAP
07F001FC00
1FFC03FF00
3FFE0FFF80
7FFF1FFFC0
7FFF1FFFC0
7FFFBFFFE0
FFFFFFFFE0
FFFFFFFFE0
FFFFFFFFE0
7FFFFFFFE0
7FFFFFFFE0
7FFFFFFFC0
3FFFFFFFC0
1FFFFFFF80
1FFFFFFF00
0FFFFFFE00
07FFFFFC00
03FFFFFC00
01FFFFF800
00FFFFF000
007FFFE000
003FFFC000
001FFF8000
000FFF0000
0007FE0000
0003FC0000
0001F80000
0000F00000
0000F00000
0000600000
0000600000
0000400000
0000400000
ENDCHAR
STARTCHAR 0058
ENCODING 88
SWIDTH 969 0
DWIDTH 35 0
BBX 29 37 3 -7
BITMAP
01C00000
03C00000
03C00000
03C00000
03C00000
03C00000
03C00000
03C00000
03C00000
03C00000
03C20000
03C78000
03C78C00
03C79E00
03C79E78
23C79E78
F3E79E78
F3FFFFF8
F3FFFFF8
F3FFFFF8
F3FFFFF8
F3FFFFF8
F3FFFFF8
F3FFFFF8
FFFFFFF8
FFFFFFF8
FFFFFFF8
7FFFFFF8
3FFFFFF8
3FFFFFF8
1FFFFFF8
0FFFFFF8
0FFFFFF8
07FFFFF8
03FFFFF8
03FFFFF0
01FFFFE0
ENDCHAR
STARTCHAR 0059
ENCODING 89
SWIDTH 969 0
DWIDTH 35 0
BBX 27 37 4 -7
BITMAP
000E0000
000E0000
000E0000
000E0000
03CE7800
03CE7800
03CE7800
03CE7800
03CE79C0
03CE79E0
03CE79E0
03CE79E0
03CE79E0
03CE79E0
03CE79E0
03CE79E0
03CE79E0
23CE79E0
73CF79E0
F3FFFFE0
F3FFFFE0
F3FFFFE0
F3FFFFE0
F3FFFFE0
F3FFFFE0
FFFFFFE0
7FFFFFE0
7FFFFFE0
7FFFFFE0
3FFFFFE0
1FFFFFE0
1FFFFFE0
0FFFFFE0
07FFFFE0
07FFFFC0
03FFFFC0
01FFFF80
ENDCHAR
STARTCHAR 005A
ENCODING 90
SWIDTH 969 0
DWIDTH 35 0
BBX 35 35 0 -6
BITMAP
0000000C00
0000100E00
0000380600
0000780700
0000F80700
0000F84380
0001F8E380
0003F8E380
0007F8E3C0
000FF871C0
001FF871C0
7FFFF871C0
FFFFF871E0
FFFFF879E0
FFFFF879E0
FFFFF879E0
FFFFF879E0
FFFFF879E0
FFFFF879E0
FFFFF879E0
FFFFF879E0
FFFFF871E0
FFFFF871E0
FFFFF871C0
FFFFF871C0
003FF871C0
001FF8E3C0
000FF8E380
0007F8C380
0003F8C380
0001F80700
0000F80700
0000780E00
0000380E00
0000180C00
ENDCHAR
STARTCHAR 005B
ENCODING 91
SWIDTH 969 0
DWIDTH 35 0
BBX 34 34 1 -6
BITMAP
8000000000
E000000000
F800000000
FE00000000
FF80000000
FFE0000000
FFF8000000
FFFE000000
FFFF800000
FFFFE00000
FFFFF80000
FFFFFE0000
FFFFFF8000
FFFFFFE000
FFFFFFF800
FFFFFFFE00
FFFFFFFFC0
FFFFFFFF00
FFFFFFFC00
FFFFFFF000
FFFFFFC000
FFFFFF0000
FFFFFC0000
FFFFF00000
FFFFC00000
FFFF000000
FFFC000000
FFF0000000
FFC0000000
FF00000000
FC00000000
F000000000
C000000000
8000000000
ENDCHAR
STARTCHAR 005C
ENCODING 92
SWIDTH 969 0
DWIDTH 35 0
BBX 35 35 0 -6
BITMAP
FFFFFFFFE0
7FFFFFFFC0
7FFFFFFFC0
3FFFFFFF80
3FFFFFFF80
1FFFFFFF00
1FFFFFFF00
0FFFFFFE00
0FFFFFFE00
07FFFFFC00
07FFFFFC00
03FFFFF800
03FFFFF800
01FFFFF000
01FFFFF000
00FFFFE000
00FFFFE000
007FFFC000
007FFFC000
003FFF8000
003FFF8000
001FFF0000
001FFF0000
000FFE0000
000FFE0000
0007FC0000
0007FC0000
0003F80000
0003F80000
0001F00000
0001F00000
0000E00000
0000E00000
0000400000
0000400000
ENDCHAR
STARTCHAR 005D
ENCODING 93
SWIDTH 969 0
DWIDTH 35 0
BBX 35 35 0 -6
BITMAP
0000000020
0000000060
00000001E0
00000007E0
0000001FE0
0000007FE0
000001FFE0
000007FFE0
00001FFFE0
00007FFFE0
0001FFFFE0
0007FFFFE0
001FFFFFE0
007FFFFFE0
01FFFFFFE0
07FFFFFFE0
1FFFFFFFE0
FFFFFFFFE0
3FFFFFFFE0
0FFFFFFFE0
03FFFFFFE0
00FFFFFFE0
003FFFFFE0
000FFFFFE0
0003FFFFE0
0000FFFFE0
00003FFFE0
00000FFFE0
000003FFE0
000000FFE0
0000003FE0
0000000FE0
00000003E0
00000000E0
0000000020
ENDCHAR
STARTCHAR 005E
ENCODING 94
SWIDTH 969 0
DWIDTH 35 0
BBX 35 13 0 5
BITMAP
0200000800
0400000400
0C00000600
1800000300
3800000380
7FFFFFFFC0
FFFFFFFFE0
7FFFFFFFC0
3800000380
1800000300
0C00000600
0400000400
0200000800
ENDCHAR
STARTCHAR 005F
ENCODING 95
SWIDTH 969 0
DWIDTH 35 0
BBX 13 37 11 -7
BITMAP
0200
0700
0F80
1FC0
3FE0
7770
8708
0700
0700
0700
0700
0700
0700
0700
0700
0700
0700
0700
0700
0700
0700
0700
0700
0700
0700
0700
0700
0700
0700
0700
8708
6730
3FE0
1FC0
0F80
0700
0200
ENDCHAR
STARTCHAR 0060
ENCODING 96
SWIDTH 969 0
DWIDTH 35 0
BBX 13 37 11 -7
BITMAP
0700
0700
0700
0700
0700
0700
0700
0700
0700
0700
0700
0700
0700
0700
0700
0700
0700
0700
0700
0700
0700
0700
0700
0700
0700
0700
0700
0700
0700
0700
8708
6730
3FE0
1FC0
0F80
0700
0200
ENDCHAR
STARTCHAR 0061
ENCODING 97
SWIDTH 969 0
DWIDTH 35 0
BBX 35 20 0 2
BITMAP
0000000400
0000000400
001FE00C00
007FFC0E00
00FFFF1E00
01FFFFBE00
03FFFFFE00
07FFFFFF00
0FFFFFFF00
1FFFFFFF00
1F00FFFF00
3C003FFF80
30000FFF80
60000FFF80
40001FFFC0
80003FFFC0
00007FFFC0
00007FFFC0
0000FFFFE0
0003FFFFE0
ENDCHAR
STARTCHAR 0062
ENCODING 98
SWIDTH 969 0
DWIDTH 35 0
BBX 35 20 0 2
BITMAP
0400000000
0600000000
06007E0000
0703FF8000
070FFFE000
0FBFFFF000
0FFFFFF800
0FFFFFFC00
0FFFFFFE00
1FFFFFFF00
1FFFE01F00
1FFF800780
3FFE000180
3FFE0000C0
3FFF000040
3FFF800020
7FFFC00000
7FFFE00000
7FFFE00000
FFFFF80000
ENDCHAR
STARTCHAR 0063
ENCODING 99
SWIDTH 969 0
DWIDTH 35 0
BBX 35 37 0 -7
BITMAP
0001F80000
0003FC0000
0003FC0000
0003FC0000
0003FC0000
0003FC0000
0003FC0000
0003FC0000
0003FC0000
0003FC0000
0003FC0000
0003FC0000
0003FC0000
0003FC0000
0003FC0000
0003FC0000
0003FC0000
3803FC0380
7E03FC0FC0
FF83FC3FE0
FFE3FCFFE0
7FFBFFFFC0
7FFFFFFFC0
3FFFFFFF80
1FFFFFFF00
0FFFFFFE00
07FFFFFC00
03FFFFF800
01FFFFF000
00FFFFE000
007FFFC000
003FFF8000
001FFF0000
000FFE0000
0007FC0000
0003F80000
0001F00000
ENDCHAR
STARTCHAR 0064
ENCODING 100
SWIDTH 969 0
DWIDTH 35 0
BBX 35 35 0 -6
BITMAP
0000000800
0000003E00
0000007F00
080000FF80
3C0001FFC0
7E0003FFC0
7F0007FFE0
FF000FFFC0
FF001FFF80
FF803FFF00
FF807FFE00
FF80FFFC00
FFC1FFF800
FFC3FFF000
FFC7FFE000
FFEFFFC000
FFFFFF8000
FFFFFF0000
FFFFFE0000
FFFFFC0000
FFFFF80000
FFFFF00000
FFFFE00000
FFFFC00000
FFFFE00000
FFFFFC0000
FFFFFF8000
FFFFFFF000
FFFFFFFC00
FFFFFFFE00
FFFFFFFF00
7FFFFFFE00
7FFFFFFE00
3FFFFFFE00
1FFFFFF800
ENDCHAR
STARTCHAR 0065
ENCODING 101
SWIDTH 969 0
DWIDTH 35 0
BBX 34 35 1 -6
BITMAP
0400000000
1F00000000
3F80000000
7FC0000400
FFE0000F00
FFF0001F80
FFF8003F80
FFFC003FC0
7FFE003FC0
3FFF007FC0
1FFF807FC0
0FFFC07FC0
07FFE0FFC0
03FFF0FFC0
01FFF8FFC0
00FFFDFFC0
007FFFFFC0
003FFFFFC0
001FFFFFC0
000FFFFFC0
0007FFFFC0
0003FFFFC0
0001FFFFC0
0000FFFFC0
0001FFFFC0
000FFFFFC0
007FFFFFC0
03FFFFFFC0
0FFFFFFFC0
1FFFFFFFC0
1FFFFFFFC0
1FFFFFFFC0
1FFFFFFF80
0FFFFFFF80
07FFFFFE00
ENDCHAR
STARTCHAR 0066
ENCODING 102
SWIDTH 969 0
DWIDTH 35 0
BBX 35 32 0 -4
BITMAP
0003E00000
0007E00000
000FE00000
001FE00000
003FC00000
007FC00000
00FFC00000
01FF800000
03FF800000
07FF000000
0FFF000000
1FFE000000
3FFFFFFFC0
7FFFFFFFE0
FFFFFFFFE0
FFFFFFFFE0
FFFFFFFFE0
7FFFFFFFE0
3FFFFFFFE0
1FFFFFFFC0
0FFE000000
07FF000000
03FF000000
01FF800000
00FF800000
007FC00000
003FC00000
001FE00000
000FE00000
0007E00000
0003E00000
0001C00000
ENDCHAR
STARTCHAR 0067
ENCODING 103
SWIDTH 969 0
DWIDTH 35 0
BBX 35 33 0 -5
BITMAP
0000200000
0000F80000
0000FC0000
0000FE0000
0000FF0000
00007F8000
00007FC000
00003FE000
00003FF000
00001FF800
00001FFC00
00000FFE00
00000FFF00
7FFFFFFF80
FFFFFFFFC0
FFFFFFFFE0
FFFFFFFFE0
FFFFFFFFE0
FFFFFFFFC0
FFFFFFFF80
7FFFFFFF00
00000FFE00
00001FFC00
00001FF800
00003FF000
00003FE000
00007FC000
00007F8000
0000FF0000
0000FE0000
0000FC0000
0000F80000
0000300000
ENDCHAR
STARTCHAR 0068
ENCODING 104
SWIDTH 969 0
DWIDTH 35 0
BBX 35 37 0 -7
BITMAP
0000E00000
0001F00000
0003F80000
0007FC0000
000FFE0000
001FFF0000
003FFF8000
007FFFC000
00FFFFE000
01FFFFF000
03FFFFF800
07FFFFFC00
0FFFFFFE00
1FFFFFFF00
3FFFFFFF80
7FFFFFFFC0
7FF3FDFFE0
FFC3FC7FE0
7F03FC1FE0
7C03FC07C0
0003FC0000
0003FC0000
0003FC0000
0003FC0000
0003FC0000
0003FC0000
0003FC0000
0003FC0000
0003FC0000
0003FC0000
0003FC0000
0003FC0000
0003FC0000
0003FC0000
0003FC0000
0003FC0000
0001F80000
ENDCHAR
STARTCHAR 0069
ENCODING 105
SWIDTH 969 0
DWIDTH 35 0
BBX 35 35 0 -6
BITMAP
1FFFFFFC00
7FFFFFFE00
7FFFFFFE00
FFFFFFFF00
FFFFFFFF00
FFFFFFFE00
FFFFFFFC00
FFFFFFF000
FFFFFFC000
FFFFFE0000
FFFFF00000
FFFFC00000
FFFFE00000
FFFFF00000
FFFFF80000
FFFFFC0000
FFFFFE0000
FFFFFF0000
FFFFFF8000
FFEFFFC000
FFC7FFE000
FFC3FFF000
FFC1FFF800
FF80FFFC00
FF807FFE00
FF803FFF00
FF001FFF80
FF000FFFC0
FF0007FFE0
7E0003FFE0
3C0001FFE0
080000FFC0
0000007F80
0000003F00
0000001E00
ENDCHAR
STARTCHAR 006A
ENCODING 106
SWIDTH 969 0
DWIDTH 35 0
BBX 35 35 0 -6
BITMAP
03FFFFFF80
0FFFFFFFC0
0FFFFFFFC0
1FFFFFFFE0
1FFFFFFFE0
0FFFFFFFE0
07FFFFFFE0
01FFFFFFE0
007FFFFFE0
0007FFFFE0
0001FFFFE0
00007FFFE0
0000FFFFE0
0001FFFFE0
0003FFFFE0
0007FFFFE0
000FFFFFE0
001FFFFFE0
003FFFFFE0
007FFEFFE0
00FFFC7FE0
01FFF87FE0
03FFF07FE0
07FFE03FE0
0FFFC03FE0
1FFF803FE0
3FFF001FE0
7FFE001FE0
FFFC000FE0
FFF8000FC0
7FF0000780
3FE0000200
1FC0000000
0F80000000
0700000000
ENDCHAR
STARTCHAR 006B
ENCODING 107
SWIDTH 969 0
DWIDTH 35 0
BBX 35 30 0 -4
BITMAP
0000100000
0000080000
00000C0000
00000E0000
00000F0000
00000F8000
00000FC000
001FFFE000
00FFFFF000
03FFFFF800
07FFFFFC00
0FFFFFFE00
1FFFFFFF00
1FFFFFFF80
3FFFFFFFE0
3FFFFFFFC0
7FE03FFF00
7F807FFC00
7E007FF800
7C007FE000
F8007F8000
F0007F0000
F0007C0000
E000F00000
E000C00000
C000800000
C000000000
8000000000
8000000000
8000000000
ENDCHAR
STARTCHAR 006C
ENCODING 108
SWIDTH 1080 0
DWIDTH 39 0
BBX 38 33 0 -5
BITMAP
0000800000
0000800000
0001800000
0003800000
0007800000
000F800000
001F800000
003F800000
007FFF8000
00FFFFF000
01FFFFFE00
03FFFFFF00
07FFFFFF80
0FFFFFFFC0
1FFFFFFFE0
3FFFFFFFF0
FFFFFFFFF0
7FFFFFFFF8
1FFFE07FF8
07FFE00FFC
03FFF003FC
00FFF001FC
003FF000FC
001FF0007C
0007F0003C
0001F0001C
000078001C
000038000C
000008000C
0000000004
0000000004
0000000004
0000000004
ENDCHAR
STARTCHAR 006D
ENCODING 109
SWIDTH 969 0
DWIDTH 35 0
BBX 31 37 2 -7
BITMAP
007FFC00
007FFC00
007FFC00
007FFC00
007FFC00
007FFC00
007FFC00
007FFC00
007FFC00
007FFC00
007FFC00
007FFC00
007FFC00
007FFC00
007FFC00
007FFC00
007FFC00
007FFC00
007FFC00
007FFC00
FFFFFFFE
7FFFFFFC
3FFFFFF8
1FFFFFF0
0FFFFFE0
07FFFFC0
03FFFF80
01FFFF00
00FFFF00
007FFE00
007FFC00
003FF800
001FF000
000FE000
0007C000
00038000
00010000
ENDCHAR
STARTCHAR 006E
ENCODING 110
SWIDTH 969 0
DWIDTH 35 0
BBX 35 29 0 -3
BITMAP
0001000000
0003000000
0007000000
000F000000
001F000000
003F000000
007F000000
00FF000000
01FFFFFFE0
03FFFFFFE0
07FFFFFFE0
1FFFFFFFE0
3FFFFFFFE0
7FFFFFFFE0
FFFFFFFFE0
7FFFFFFFE0
3FFFFFFFE0
1FFFFFFFE0
07FFFFFFE0
03FFFFFFE0
01FF000000
00FF000000
007F000000
003F000000
001F000000
000F000000
0007000000
0003000000
0001000000
ENDCHAR
STARTCHAR 006F
ENCODING 111
SWIDTH 969 0
DWIDTH 35 0
BBX 35 29 0 -3
BITMAP
0000100000
0000180000
00001C0000
00001E0000
00001F0000
00001F8000
00001FC000
00001FE000
00001FF000
FFFFFFF800
FFFFFFFC00
FFFFFFFF00
FFFFFFFF80
FFFFFFFFC0
FFFFFFFFE0
FFFFFFFFC0
FFFFFFFF80
FFFFFFFF00
FFFFFFFE00
FFFFFFF800
00001FF000
00001FE000
00001FC000
00001F8000
00001F0000
00001E0000
00001C0000
0000180000
0000100000
ENDCHAR
STARTCHAR 0070
ENCODING 112
SWIDTH 969 0
DWIDTH 35 0
BBX 31 37 2 -7
BITMAP
00010000
00038000
0007C000
0007E000
000FF000
001FF800
003FF800
007FFC00
00FFFE00
01FFFF00
03FFFF80
07FFFFC0
0FFFFFE0
1FFFFFF0
3FFFFFF8
7FFFFFFC
FFFFFFFE
007FFC00
007FFC00
007FFC00
007FFC00
007FFC00
007FFC00
007FFC00
007FFC00
007FFC00
007FFC00
007FFC00
007FFC00
007FFC00
007FFC00
007FFC00
007FFC00
007FFC00
007FFC00
007FFC00
007FFC00
ENDCHAR
STARTCHAR 0071
ENCODING 113
SWIDTH 969 0
DWIDTH 35 0
BBX 31 37 2 -7
BITMAP
00000400
00000400
00000E00
00000E00
00001F00
00003F80
00003F80
00007FC0
00007FC0
0000FFE0
FC01FFE0
FC01FFF0
FC03FFF8
FC03FFF8
FC07FFFC
FC07FFFC
FC0FFFFE
FC003F00
FC003F00
FC003F00
FC003F00
FC003F00
FC003F00
FC003F00
FC003F00
FC003F00
FC003F00
FC003F00
FE007F00
7F00FE00
7F81FE00
3FFFFC00
1FFFFC00
1FFFF800
07FFF000
03FFC000
00FF0000
ENDCHAR
STARTCHAR 0072
ENCODING 114
SWIDTH 969 0
DWIDTH 35 0
BBX 35 29 0 -3
BITMAP
0001000000
0007000000
000F000000
003F000000
00FF000000
03FF000000
07FFFF0000
1FFFFFF000
7FFFFFFC00
FFFFFFFE00
1FFFFFFF00
0FFFFFFF80
03FF003F80
00FF001FC0
003F000FC0
001F0007E0
00070007E0
00010007E0
00000007E0
00000007E0
00000007E0
0000000FC0
0000001FC0
0000007F80
007FFFFF80
007FFFFF00
007FFFFE00
007FFFFC00
007FFFF000
ENDCHAR
STARTCHAR 0073
ENCODING 115
SWIDTH 969 0
DWIDTH 35 0
BBX 35 27 0 -2
BITMAP
0007FC0000
007FFFC000
01FFFFF000
07FFFFFC00
0FFFFFFE00
1FFFFFFF00
3FFFFFFF80
7FFFFFFFC0
7FFFFFFFC0
7FFFFFFFE0
FFFFFFFFE0
FFFFFFFFE0
FFFFFFFFE0
FFFFFFFFE0
7FFFFFFFC0
7FFFFFFFC0
3FFFFFFF80
3FFFFFFF80
1FFFFFFF00
07FFFFFC00
03FFFFF800
00FFFFE000
001FFE0000
000F800000
000F000000
000E000000
0078000000
ENDCHAR
STARTCHAR 0074
ENCODING 116
SWIDTH 969 0
DWIDTH 35 0
BBX 35 29 0 -3
BITMAP
7FFFFFFFC0
FFFFFFFFE0
FFFFFFFFE0
FFFFFFFFE0
FFFFFFFFE0
FFFFFFFFE0
FFFFFFFFE0
FFFFFFFFE0
FFFFFFFFE0
FFFFFFFFE0
FFFFFFFFE0
FFFFFFFFE0
FFFFFFFFE0
FFFFFFFFE0
FFFFFFFFE0
FFFFFFFFE0
FFFFFFFFE0
FFFFFFFFE0
FFFFFFFFE0
FFFFFFFFE0
FFFFFFFFE0
7FFFFFFFC0
0001F00000
0003E00000
0003800000
0003000000
0006000000
0004000000
0008000000
ENDCHAR
STARTCHAR 0075
ENCODING 117
SWIDTH 969 0
DWIDTH 35 0
BBX 35 27 0 -2
BITMAP
000FFC0000
007FFFC000
01FFFFF000
07FFFFFC00
0FFFFFFE00
1FFFFFFF00
3FFFFFFF80
7FFFFFFFC0
7FFFFFFFC0
FFFFFFFFE0
FFFFFFFFE0
FFFFFFFFE0
FFFFFFFFE0
FFFFFFFFE0
7FFFFFFFC0
7FFFFFFFC0
3FFFFFFF80
1FFFFFFF80
0FFFFFFF00
07FFFFFC00
01FFFFF800
007FFFE000
000FFF0000
00003E0000
00001E0000
00000F0000
000003C000
ENDCHAR
STARTCHAR 0076
ENCODING 118
SWIDTH 969 0
DWIDTH 35 0
BBX 35 29 0 -3
BITMAP
7FFFFFFFC0
FFFFFFFFE0
FFFFFFFFE0
FFFFFFFFE0
FFFFFFFFE0
FFFFFFFFE0
FFFFFFFFE0
FFFFFFFFE0
FFFFFFFFE0
FFFFFFFFE0
FFFFFFFFE0
FFFFFFFFE0
FFFFFFFFE0
FFFFFFFFE0
FFFFFFFFE0
FFFFFFFFE0
FFFFFFFFE0
FFFFFFFFE0
FFFFFFFFE0
FFFFFFFFE0
FFFFFFFFE0
7FFFFFFFC0
3FFFFFFF80
0000F80000
0000380000
00001C0000
00000C0000
0000040000
0000020000
ENDCHAR
STARTCHAR 0077
ENCODING 119
SWIDTH 969 0
DWIDTH 35 0
BBX 35 35 0 -6
BITMAP
0000400000
0001F00000
0003F80000
0003F80000
0183F83000
07C7F87C00
07FFFEFE00
0FFFFFFE00
0FFFFFFE00
07FFFFFC00
03FFFFF800
03FFFFF000
07FE0FF000
07FC07F800
1FF803FF80
7FF001FFC0
FFF001FFE0
FFF001FFE0
FFF001FFE0
7FF001FFC0
3FF803FF80
07FC07F000
03FE0FF000
03FFFFF000
03FFFFF800
07FFFFFC00
0FFFFFFE00
0FFFFFFE00
0FE7F8FE00
07C3F87C00
0383F83800
0003F80000
0003F80000
0001F00000
0000E00000
ENDCHAR
STARTCHAR 0078
ENCODING 120
SWIDTH 969 0
DWIDTH 35 0
BBX 35 29 0 -3
BITMAP
00C0000000
1DC0000000
1FC0000000
0FFC000000
7FFC000000
F878000000
78781C0000
187C3E3C00
387C3E3C00
7FFC1FFC00
7FE37FFC00
07F7FFF800
0E6FFFFC80
0607FEFFC0
0003F83FE0
0003F01FE0
0003E01FC0
0007E01E00
000FE01E00
001FF03F00
000FF87F80
000FFFFFC0
0000FFFFC0
00007FF780
0000FFF000
0000FBF000
0000F9F000
000070F000
000000E000
ENDCHAR
STARTCHAR 0079
ENCODING 121
SWIDTH 969 0
DWIDTH 35 0
BBX 35 31 0 -4
BITMAP
000F800000
003FE03C00
00FFF0FF80
01FF0CFF00
03FC01F800
03FC01F820
07FC01FFC0
0FFE01FF80
1FFF03FF80
7E3F83FE00
FE0FC7FC00
7E07EFFC00
3E03FFFC00
1C01FF8000
0000FF0000
0001FE0000
0003FF0000
0007FF8000
000FEFC000
001FC7E000
007F83F000
00FF03F800
01FE01FC00
03FC00FE00
0FF8007F00
1FF0003F80
1FE0001FE0
3FC0000FC0
1F80000780
0F00000300
0000000200
ENDCHAR
STARTCHAR 007A
ENCODING 122
SWIDTH 969 0
DWIDTH 35 0
BBX 35 35 0 -6
BITMAP
0000040000
0000080000
0000180000
0000380000
0000780000
0000F00000
0000F00000
0000F00000
0000F00000
0001F00000
0001E00000
0001E00000
0001E00000
0003E00020
0003C003C0
0783C03F80
1FE3C7FF00
3FF3FFFE00
7FFFFFFC00
787FFFC000
F07FFC0000
F1FFC00000
FFFF800000
7FEFC00000
3FDFE00000
063FE00000
003CF00000
003CF00000
0078F00000
0078F00000
007DE00000
003FE00000
003FC00000
001F800000
0006000000
ENDCHAR
STARTCHAR 007B
ENCODING 123
SWIDTH 969 0
DWIDTH 35 0
BBX 35 33 0 -5
BITMAP
000001FC00
000000F000
000000F800
000000FC00
0000005E00
0000004F00
0000000700
0000000780
0000000380
00000003C0
00000001C0
00000001C0
00000001E0
00000000E0
00000000E0
00000000E0
E0000000E0
E0000000E0
F0000001E0
70000001C0
70000001C0
78000003C0
3800000380
3C00000780
1C00000700
1E00000F00
0F00001E00
07C0007C00
03F001F800
01FE0FF000
007FFFC000
001FFF0000
0003F80000
ENDCHAR
STARTCHAR 007C
ENCODING 124
SWIDTH 969 0
DWIDTH 35 0
BBX 35 33 0 -5
BITMAP
03F0000000
01F0000000
03E0000000
07E0000000
0FE0000000
0F40000000
1E00000000
3C00000000
3800000000
7800000000
7000000000
7000000000
F000000000
E000000000
E000000000
E000000000
E0000000E0
E0000000E0
F0000000E0
70000001C0
70000001C0
78000001C0
3800000380
3C00000780
1C00000700
1E00000F00
0F00001E00
07C0007C00
03F000F800
01FE07F000
007FFFE000
001FFF8000
0007FC0000
ENDCHAR
STARTCHAR 007D
ENCODING 125
SWIDTH 498 0
DWIDTH 18 0
BBX 0 0 0 0
BITMAP
ENDCHAR
STARTCHAR 007E
ENCODING 126
SWIDTH 498 0
DWIDTH 18 0
BBX 0 0 0 0
BITMAP
ENDCHAR
STARTCHAR 00A0
ENCODING 160
SWIDTH 249 0
DWIDTH 9 0
BBX 0 0 0 0
BITMAP
ENDCHAR
STARTCHAR 00A1
ENCODING 161
SWIDTH 332 0
DWIDTH 12 0
BBX 0 0 0 0
BITMAP
ENDCHAR
STARTCHAR 00A2
ENCODING 162
SWIDTH 553 0
DWIDTH 20 0
BBX 0 0 0 0
BITMAP
ENDCHAR
STARTCHAR 00A3
ENCODING 163
SWIDTH 498 0
DWIDTH 18 0
BBX 0 0 0 0
BITMAP
ENDCHAR
STARTCHAR 00A4
ENCODING 164
SWIDTH 498 0
DWIDTH 18 0
BBX 0 0 0 0
BITMAP
ENDCHAR
STARTCHAR 00A5
ENCODING 165
SWIDTH 609 0
DWIDTH 22 0
BBX 0 0 0 0
BITMAP
ENDCHAR
STARTCHAR 00A6
ENCODING 166
SWIDTH 498 0
DWIDTH 18 0
BBX 0 0 0 0
BITMAP
ENDCHAR
STARTCHAR 00A7
ENCODING 167
SWIDTH 498 0
DWIDTH 18 0
BBX 0 0 0 0
BITMAP
ENDCHAR
STARTCHAR 00A8
ENCODING 168
SWIDTH 498 0
DWIDTH 18 0
BBX 0 0 0 0
BITMAP
ENDCHAR
STARTCHAR 00A9
ENCODING 169
SWIDTH 803 0
DWIDTH 29 0
BBX 0 0 0 0
BITMAP
ENDCHAR
STARTCHAR 00AA
ENCODING 170
SWIDTH 304 0
DWIDTH 11 0
BBX 0 0 0 0
BITMAP
ENDCHAR
STARTCHAR 00AB
ENCODING 171
SWIDTH 470 0
DWIDTH 17 0
BBX 0 0 0 0
BITMAP
ENDCHAR
STARTCHAR 00AC
ENCODING 172
SWIDTH 498 0
DWIDTH 18 0
BBX 0 0 0 0
BITMAP
ENDCHAR
STARTCHAR 00AD
ENCODING 173
SWIDTH 969 0
DWIDTH 35 0
BBX 35 35 0 -6
BITMAP
0003F80000
001FFF0000
007F3FC000
01F001F000
03C0007800
0700001C00
0F00000E00
1F80010700
1DC0030300
38E0070380
30700F0180
70381F01C0
60043F00C0
601FFF00C0
601FFF00E0
E01FFF00E0
E01FFF0060
C01FFF0060
E01FFF0060
E01FFF0060
601FFF00E0
601FFF00C0
60003F00C0
70001F01C0
30000F4180
3800076380
1800037300
1C00033F00
0E00001E00
0700001C00
03C0007800
01F001F000
007F1FC000
001FFF0000
0003F80000
ENDCHAR
STARTCHAR 00AE
ENCODING 174
SWIDTH 803 0
DWIDTH 29 0
BBX 0 0 0 0
BITMAP
ENDCHAR
STARTCHAR 00AF
ENCODING 175
SWIDTH 332 0
DWIDTH 12 0
BBX 0 0 0 0
BITMAP
ENDCHAR
STARTCHAR 00B0
ENCODING 176
SWIDTH 332 0
DWIDTH 12 0
BBX 0 0 0 0
BITMAP
ENDCHAR
STARTCHAR 00B1
ENCODING 177
SWIDTH 498 0
DWIDTH 18 0
BBX 0 0 0 0
BITMAP
ENDCHAR
STARTCHAR 00B2
ENCODING 178
SWIDTH 498 0
DWIDTH 18 0
BBX 0 0 0 0
BITMAP
ENDCHAR
STARTCHAR 00B3
ENCODING 179
SWIDTH 498 0
DWIDTH 18 0
BBX 0 0 0 0
BITMAP
ENDCHAR
STARTCHAR 00B4
ENCODING 180
SWIDTH 498 0
DWIDTH 18 0
BBX 0 0 0 0
BITMAP
ENDCHAR
STARTCHAR 00B5
ENCODING 181
SWIDTH 581 0
DWIDTH 21 0
BBX 0 0 0 0
BITMAP
ENDCHAR
STARTCHAR 00B6
ENCODING 182
SWIDTH 498 0
DWIDTH 18 0
BBX 0 0 0 0
BITMAP
ENDCHAR
STARTCHAR 00B7
ENCODING 183
SWIDTH 249 0
DWIDTH 9 0
BBX 0 0 0 0
BITMAP
ENDCHAR
STARTCHAR 00B8
ENCODING 184
SWIDTH 498 0
DWIDTH 18 0
BBX 0 0 0 0
BITMAP
ENDCHAR
STARTCHAR 00B9
ENCODING 185
SWIDTH 498 0
DWIDTH 18 0
BBX 0 0 0 0
BITMAP
ENDCHAR
STARTCHAR 00BA
ENCODING 186
SWIDTH 360 0
DWIDTH 13 0
BBX 0 0 0 0
BITMAP
ENDCHAR
STARTCHAR 00BB
ENCODING 187
SWIDTH 470 0
DWIDTH 17 0
BBX 0 0 0 0
BITMAP
ENDCHAR
STARTCHAR 00BC
ENCODING 188
SWIDTH 830 0
DWIDTH 30 0
BBX 0 0 0 0
BITMAP
ENDCHAR
STARTCHAR 00BD
ENCODING 189
SWIDTH 969 0
DWIDTH 35 0
BBX 0 0 0 0
BITMAP
ENDCHAR
STARTCHAR 00BE
ENCODING 190
SWIDTH 830 0
DWIDTH 30 0
BBX 0 0 0 0
BITMAP
ENDCHAR
STARTCHAR 00BF
ENCODING 191
SWIDTH 360 0
DWIDTH 13 0
BBX 0 0 0 0
BITMAP
ENDCHAR
STARTCHAR 00C0
ENCODING 192
SWIDTH 747 0
DWIDTH 27 0
BBX 0 0 0 0
BITMAP
ENDCHAR
STARTCHAR 00C1
ENCODING 193
SWIDTH 747 0
DWIDTH 27 0
BBX 0 0 0 0
BITMAP
ENDCHAR
STARTCHAR 00C2
ENCODING 194
SWIDTH 747 0
DWIDTH 27 0
BBX 0 0 0 0
BITMAP
ENDCHAR
STARTCHAR 00C3
ENCODING 195
SWIDTH 747 0
DWIDTH 27 0
BBX 0 0 0 0
BITMAP
ENDCHAR
STARTCHAR 00C4
ENCODING 196
SWIDTH 747 0
DWIDTH 27 0
BBX 0 0 0 0
BITMAP
ENDCHAR
STARTCHAR 00C5
ENCODING 197
SWIDTH 747 0
DWIDTH 27 0
BBX 0 0 0 0
BITMAP
ENDCHAR
STARTCHAR 00C6
ENCODING 198
SWIDTH 1024 0
DWIDTH 37 0
BBX 0 0 0 0
BITMAP
ENDCHAR
STARTCHAR 00C7
ENCODING 199
SWIDTH 692 0
DWIDTH 25 0
BBX 0 0 0 0
BITMAP
ENDCHAR
STARTCHAR 00C8
ENCODING 200
SWIDTH 553 0
DWIDTH 20 0
BBX 0 0 0 0
BITMAP
ENDCHAR
STARTCHAR 00C9
ENCODING 201
SWIDTH 553 0
DWIDTH 20 0
BBX 0 0 0 0
BITMAP
ENDCHAR
STARTCHAR 00CA
ENCODING 202
SWIDTH 553 0
DWIDTH 20 0
BBX 0 0 0 0
BITMAP
ENDCHAR
STARTCHAR 00CB
ENCODING 203
SWIDTH 553 0
DWIDTH 20 0
BBX 0 0 0 0
BITMAP
ENDCHAR
STARTCHAR 00CC
ENCODING 204
SWIDTH 332 0
DWIDTH 12 0
BBX 0 0 0 0
BITMAP
ENDCHAR
STARTCHAR 00CD
ENCODING 205
SWIDTH 332 0
DWIDTH 12 0
BBX 0 0 0 0
BITMAP
ENDCHAR
STARTCHAR 00CE
ENCODING 206
SWIDTH 332 0
DWIDTH 12 0
BBX 0 0 0 0
BITMAP
ENDCHAR
STARTCHAR 00CF
ENCODING 207
SWIDTH 332 0
DWIDTH 12 0
BBX 0 0 0 0
BITMAP
ENDCHAR
STARTCHAR 00D0
ENCODING 208
SWIDTH 747 0
DWIDTH 27 0
BBX 0 0 0 0
BITMAP
ENDCHAR
STARTCHAR 00D1
ENCODING 209
SWIDTH 747 0
DWIDTH 27 0
BBX 0 0 0 0
BITMAP
ENDCHAR
STARTCHAR 00D2
ENCODING 210
SWIDTH 775 0
DWIDTH 28 0
BBX 0 0 0 0
BITMAP
ENDCHAR
STARTCHAR 00D3
ENCODING 211
SWIDTH 775 0
DWIDTH 28 0
BBX 0 0 0 0
BITMAP
ENDCHAR
STARTCHAR 00D4
ENCODING 212
SWIDTH 775 0
DWIDTH 28 0
BBX 0 0 0 0
BITMAP
ENDCHAR
STARTCHAR 00D5
ENCODING 213
SWIDTH 775 0
DWIDTH 28 0
BBX 0 0 0 0
BITMAP
ENDCHAR
STARTCHAR 00D6
ENCODING 214
SWIDTH 775 0
DWIDTH 28 0
BBX 0 0 0 0
BITMAP
ENDCHAR
STARTCHAR 00D7
ENCODING 215
SWIDTH 498 0
DWIDTH 18 0
BBX 0 0 0 0
BITMAP
ENDCHAR
STARTCHAR 00D8
ENCODING 216
SWIDTH 775 0
DWIDTH 28 0
BBX 0 0 0 0
BITMAP
ENDCHAR
STARTCHAR 00D9
ENCODING 217
SWIDTH 720 0
DWIDTH 26 0
BBX 0 0 0 0
BITMAP
ENDCHAR
STARTCHAR 00DA
ENCODING 218
SWIDTH 720 0
DWIDTH 26 0
BBX 0 0 0 0
BITMAP
ENDCHAR
STARTCHAR 00DB
ENCODING 219
SWIDTH 720 0
DWIDTH 26 0
BBX 0 0 0 0
BITMAP
ENDCHAR
STARTCHAR 00DC
ENCODING 220
SWIDTH 720 0
DWIDTH 26 0
BBX 0 0 0 0
BITMAP
ENDCHAR
STARTCHAR 00DD
ENCODING 221
SWIDTH 609 0
DWIDTH 22 0
BBX 0 0 0 0
BITMAP
ENDCHAR
STARTCHAR 00DE
ENCODING 222
SWIDTH 553 0
DWIDTH 20 0
BBX 0 0 0 0
BITMAP
ENDCHAR
STARTCHAR 00DF
ENCODING 223
SWIDTH 609 0
DWIDTH 22 0
BBX 0 0 0 0
BITMAP
ENDCHAR
STARTCHAR 00E0
ENCODING 224
SWIDTH 443 0
DWIDTH 16 0
BBX 0 0 0 0
BITMAP
ENDCHAR
STARTCHAR 00E1
ENCODING 225
SWIDTH 443 0
DWIDTH 16 0
BBX 0 0 0 0
BITMAP
ENDCHAR
STARTCHAR 00E2
ENCODING 226
SWIDTH 443 0
DWIDTH 16 0
BBX 0 0 0 0
BITMAP
ENDCHAR
STARTCHAR 00E3
ENCODING 227
SWIDTH 443 0
DWIDTH 16 0
BBX 0 0 0 0
BITMAP
ENDCHAR
STARTCHAR 00E4
ENCODING 228
SWIDTH 443 0
DWIDTH 16 0
BBX 0 0 0 0
BITMAP
ENDCHAR
STARTCHAR 00E5
ENCODING 229
SWIDTH 443 0
DWIDTH 16 0
BBX 0 0 0 0
BITMAP
ENDCHAR
STARTCHAR 00E6
ENCODING 230
SWIDTH 720 0
DWIDTH 26 0
BBX 0 0 0 0
BITMAP
ENDCHAR
STARTCHAR 00E7
ENCODING 231
SWIDTH 443 0
DWIDTH 16 0
BBX 0 0 0 0
BITMAP
ENDCHAR
STARTCHAR 00E8
ENCODING 232
SWIDTH 443 0
DWIDTH 16 0
BBX 0 0 0 0
BITMAP
ENDCHAR
STARTCHAR 00E9
ENCODING 233
SWIDTH 443 0
DWIDTH 16 0
BBX 0 0 0 0
BITMAP
ENDCHAR
STARTCHAR 00EA
ENCODING 234
SWIDTH 443 0
DWIDTH 16 0
BBX 0 0 0 0
BITMAP
ENDCHAR
STARTCHAR 00EB
ENCODING 235
SWIDTH 443 0
DWIDTH 16 0
BBX 0 0 0 0
BITMAP
ENDCHAR
STARTCHAR 00EC
ENCODING 236
SWIDTH 249 0
DWIDTH 9 0
BBX 0 0 0 0
BITMAP
ENDCHAR
STARTCHAR 00ED
ENCODING 237
SWIDTH 249 0
DWIDTH 9 0
BBX 0 0 0 0
BITMAP
ENDCHAR
STARTCHAR 00EE
ENCODING 238
SWIDTH 249 0
DWIDTH 9 0
BBX 0 0 0 0
BITMAP
ENDCHAR
STARTCHAR 00EF
ENCODING 239
SWIDTH 249 0
DWIDTH 9 0
BBX 0 0 0 0
BITMAP
ENDCHAR
STARTCHAR 00F0
ENCODING 240
SWIDTH 553 0
DWIDTH 20 0
BBX 0 0 0 0
BITMAP
ENDCHAR
STARTCHAR 00F1
ENCODING 241
SWIDTH 526 0
DWIDTH 19 0
BBX 0 0 0 0
BITMAP
ENDCHAR
STARTCHAR 00F2
ENCODING 242
SWIDTH 498 0
DWIDTH 18 0
BBX 0 0 0 0
BITMAP
ENDCHAR
STARTCHAR 00F3
ENCODING 243
SWIDTH 498 0
DWIDTH 18 0
BBX 0 0 0 0
BITMAP
ENDCHAR
STARTCHAR 00F4
ENCODING 244
SWIDTH 498 0
DWIDTH 18 0
BBX 0 0 0 0
BITMAP
ENDCHAR
STARTCHAR 00F5
ENCODING 245
SWIDTH 498 0
DWIDTH 18 0
BBX 0 0 0 0
BITMAP
ENDCHAR
STARTCHAR 00F6
ENCODING 246
SWIDTH 498 0
DWIDTH 18 0
BBX 0 0 0 0
BITMAP
ENDCHAR
STARTCHAR 00F7
ENCODING 247
SWIDTH 498 0
DWIDTH 18 0
BBX 0 0 0 0
BITMAP
ENDCHAR
STARTCHAR 00F8
ENCODING 248
SWIDTH 498 0
DWIDTH 18 0
BBX 0 0 0 0
BITMAP
ENDCHAR
STARTCHAR 00F9
ENCODING 249
SWIDTH 526 0
DWIDTH 19 0
BBX 0 0 0 0
BITMAP
ENDCHAR
STARTCHAR 00FA
ENCODING 250
SWIDTH 526 0
DWIDTH 19 0
BBX 0 0 0 0
BITMAP
ENDCHAR
STARTCHAR 00FB
ENCODING 251
SWIDTH 526 0
DWIDTH 19 0
BBX 0 0 0 0
BITMAP
ENDCHAR
STARTCHAR 00FC
ENCODING 252
SWIDTH 526 0
DWIDTH 19 0
BBX 0 0 0 0
BITMAP
ENDCHAR
STARTCHAR 00FD
ENCODING 253
SWIDTH 415 0
DWIDTH 15 0
BBX 0 0 0 0
BITMAP
ENDCHAR
STARTCHAR 00FE
ENCODING 254
SWIDTH 498 0
DWIDTH 18 0
BBX 0 0 0 0
BITMAP
ENDCHAR
STARTCHAR 00FF
ENCODING 255
SWIDTH 415 0
DWIDTH 15 0
BBX 0 0 0 0
BITMAP
ENDCHAR
STARTCHAR 0131
ENCODING 305
SWIDTH 249 0
DWIDTH 9 0
BBX 0 0 0 0
BITMAP
ENDCHAR
STARTCHAR 02C6
ENCODING 710
SWIDTH 498 0
DWIDTH 18 0
BBX 0 0 0 0
BITMAP
ENDCHAR
STARTCHAR 02C7
ENCODING 711
SWIDTH 498 0
DWIDTH 18 0
BBX 0 0 0 0
BITMAP
ENDCHAR
STARTCHAR 02C9
ENCODING 713
SWIDTH 498 0
DWIDTH 18 0
BBX 0 0 0 0
BITMAP
ENDCHAR
STARTCHAR 02D8
ENCODING 728
SWIDTH 498 0
DWIDTH 18 0
BBX 0 0 0 0
BITMAP
ENDCHAR
STARTCHAR 02D9
ENCODING 729
SWIDTH 498 0
DWIDTH 18 0
BBX 0 0 0 0
BITMAP
ENDCHAR
STARTCHAR 02DA
ENCODING 730
SWIDTH 498 0
DWIDTH 18 0
BBX 0 0 0 0
BITMAP
ENDCHAR
STARTCHAR 02DB
ENCODING 731
SWIDTH 498 0
DWIDTH 18 0
BBX 0 0 0 0
BITMAP
ENDCHAR
STARTCHAR 02DC
ENCODING 732
SWIDTH 498 0
DWIDTH 18 0
BBX 0 0 0 0
BITMAP
ENDCHAR
STARTCHAR 02DD
ENCODING 733
SWIDTH 498 0
DWIDTH 18 0
BBX 0 0 0 0
BITMAP
ENDCHAR
STARTCHAR 037E
ENCODING 894
SWIDTH 969 0
DWIDTH 35 0
BBX 35 35 0 -6
BITMAP
0000E00000
0000E00000
0000E00000
0000E00000
0000E00000
0000E00000
0000E00000
0000E00000
0000E00000
0000E00000
0000E00000
0000E00000
0000E00000
0000E00000
0000E00000
0000E00000
FFFFFFFFE0
FFFFFFFFE0
FFFFFFFFE0
0000E00000
0000E00000
0000E00000
0000E00000
0000E00000
0000E00000
0000E00000
0000E00000
0000E00000
0000E00000
0000E00000
0000E00000
0000E00000
0000E00000
0000E00000
0000E00000
ENDCHAR
STARTCHAR 2013
ENCODING 8211
SWIDTH 526 0
DWIDTH 19 0
BBX 0 0 0 0
BITMAP
ENDCHAR
STARTCHAR 2014
ENCODING 8212
SWIDTH 996 0
DWIDTH 36 0
BBX 0 0 0 0
BITMAP
ENDCHAR
STARTCHAR 2018
ENCODING 8216
SWIDTH 276 0
DWIDTH 10 0
BBX 0 0 0 0
BITMAP
ENDCHAR
STARTCHAR 2019
ENCODING 8217
SWIDTH 276 0
DWIDTH 10 0
BBX 0 0 0 0
BITMAP
ENDCHAR
STARTCHAR 201A
ENCODING 8218
SWIDTH 276 0
DWIDTH 10 0
BBX 0 0 0 0
BITMAP
ENDCHAR
STARTCHAR 201C
ENCODING 8220
SWIDTH 443 0
DWIDTH 16 0
BBX 0 0 0 0
BITMAP
ENDCHAR
STARTCHAR 201D
ENCODING 8221
SWIDTH 443 0
DWIDTH 16 0
BBX 0 0 0 0
BITMAP
ENDCHAR
STARTCHAR 201E
ENCODING 8222
SWIDTH 443 0
DWIDTH 16 0
BBX 0 0 0 0
BITMAP
ENDCHAR
STARTCHAR 2020
ENCODING 8224
SWIDTH 498 0
DWIDTH 18 0
BBX 0 0 0 0
BITMAP
ENDCHAR
STARTCHAR 2021
ENCODING 8225
SWIDTH 498 0
DWIDTH 18 0
BBX 0 0 0 0
BITMAP
ENDCHAR
STARTCHAR 2022
ENCODING 8226
SWIDTH 498 0
DWIDTH 18 0
BBX 0 0 0 0
BITMAP
ENDCHAR
STARTCHAR 2026
ENCODING 8230
SWIDTH 996 0
DWIDTH 36 0
BBX 0 0 0 0
BITMAP
ENDCHAR
STARTCHAR 2039
ENCODING 8249
SWIDTH 304 0
DWIDTH 11 0
BBX 0 0 0 0
BITMAP
ENDCHAR
STARTCHAR 203A
ENCODING 8250
SWIDTH 304 0
DWIDTH 11 0
BBX 0 0 0 0
BITMAP
ENDCHAR
STARTCHAR 2044
ENCODING 8260
SWIDTH 166 0
DWIDTH 6 0
BBX 0 0 0 0
BITMAP
ENDCHAR
STARTCHAR 20A3
ENCODING 8355
SWIDTH 498 0
DWIDTH 18 0
BBX 0 0 0 0
BITMAP
ENDCHAR
STARTCHAR 20A4
ENCODING 8356
SWIDTH 498 0
DWIDTH 18 0
BBX 0 0 0 0
BITMAP
ENDCHAR
STARTCHAR 20A7
ENCODING 8359
SWIDTH 996 0
DWIDTH 36 0
BBX 0 0 0 0
BITMAP
ENDCHAR
STARTCHAR 20AC
ENCODING 8364
SWIDTH 498 0
DWIDTH 18 0
BBX 0 0 0 0
BITMAP
ENDCHAR
STARTCHAR 2116
ENCODING 8470
SWIDTH 1107 0
DWIDTH 40 0
BBX 0 0 0 0
BITMAP
ENDCHAR
STARTCHAR 2122
ENCODING 8482
SWIDTH 720 0
DWIDTH 26 0
BBX 0 0 0 0
BITMAP
ENDCHAR
STARTCHAR 2202
ENCODING 8706
SWIDTH 498 0
DWIDTH 18 0
BBX 0 0 0 0
BITMAP
ENDCHAR
STARTCHAR 2206
ENCODING 8710
SWIDTH 526 0
DWIDTH 19 0
BBX 0 0 0 0
BITMAP
ENDCHAR
STARTCHAR 220F
ENCODING 8719
SWIDTH 747 0
DWIDTH 27 0
BBX 0 0 0 0
BITMAP
ENDCHAR
STARTCHAR 2211
ENCODING 8721
SWIDTH 581 0
DWIDTH 21 0
BBX 0 0 0 0
BITMAP
ENDCHAR
STARTCHAR 2212
ENCODING 8722
SWIDTH 498 0
DWIDTH 18 0
BBX 0 0 0 0
BITMAP
ENDCHAR
STARTCHAR 2215
ENCODING 8725
SWIDTH 166 0
DWIDTH 6 0
BBX 0 0 0 0
BITMAP
ENDCHAR
STARTCHAR 2219
ENCODING 8729
SWIDTH 249 0
DWIDTH 9 0
BBX 0 0 0 0
BITMAP
ENDCHAR
STARTCHAR 221A
ENCODING 8730
SWIDTH 498 0
DWIDTH 18 0
BBX 0 0 0 0
BITMAP
ENDCHAR
STARTCHAR 221E
ENCODING 8734
SWIDTH 498 0
DWIDTH 18 0
BBX 0 0 0 0
BITMAP
ENDCHAR
STARTCHAR 222B
ENCODING 8747
SWIDTH 332 0
DWIDTH 12 0
BBX 0 0 0 0
BITMAP
ENDCHAR
STARTCHAR 2248
ENCODING 8776
SWIDTH 498 0
DWIDTH 18 0
BBX 0 0 0 0
BITMAP
ENDCHAR
STARTCHAR 2264
ENCODING 8804
SWIDTH 498 0
DWIDTH 18 0
BBX 0 0 0 0
BITMAP
ENDCHAR
STARTCHAR 2265
ENCODING 8805
SWIDTH 498 0
DWIDTH 18 0
BBX 0 0 0 0
BITMAP
ENDCHAR
STARTCHAR F001
ENCODING 61441
SWIDTH 526 0
DWIDTH 19 0
BBX 0 0 0 0
BITMAP
ENDCHAR
STARTCHAR F002
ENCODING 61442
SWIDTH 526 0
DWIDTH 19 0
BBX 0 0 0 0
BITMAP
ENDCHAR
STARTCHAR FB01
ENCODING 64257
SWIDTH 526 0
DWIDTH 19 0
BBX 0 0 0 0
BITMAP
ENDCHAR
STARTCHAR FB02
ENCODING 64258
SWIDTH 526 0
DWIDTH 19 0
BBX 0 0 0 0
BITMAP
ENDCHAR
ENDFONT
